{"asset":{"generator":"Khronos glTF Blender I/O v5.1.20","version":"2.0"},"scene":0,"scenes":[{"name":"Scene","nodes":[0,5]}],"nodes":[{"mesh":0,"name":"dockyard_static_scene","translation":[15.660673141479492,9.911158561706543,29.360580444335938]},{"name":"Cube.064","translation":[0.000057220458984375,-0.000034332275390625,-0.00011444091796875]},{"children":[1],"name":"Cube","scale":[1.3669098615646362,1.3669099807739258,1.3669098615646362],"translation":[-0.000034332275390625,0.0000152587890625,-0.00020599365234375]},{"children":[2],"name":"RootNode","translation":[-0.000034332275390625,0.0000152587890625,-0.00020599365234375]},{"children":[3],"name":"7b8a756bb361420a99d2bf6b3cda3d6c.fbx","rotation":[0.70710688829422,0,0,0.7071066498756409],"scale":[0.009999999776482582,0.009999999776482582,0.010000000707805157],"translation":[0,0,-0.0000024437904357910156]},{"children":[4],"name":"Sketchfab_model","rotation":[-0.7670862078666687,-0.04006768390536308,-0.008247311227023602,0.6402385234832764],"scale":[0.8790425658226013,0.8790426254272461,0.8790426254272461],"translation":[11.418235778808594,8.79468059539795,-32.834320068359375]}],"materials":[{"doubleSided":true,"name":"Material.051","pbrMetallicRoughness":{"baseColorTexture":{"index":0},"metallicFactor":0,"roughnessFactor":0.82}},{"doubleSided":true,"name":"Material.008","pbrMetallicRoughness":{"baseColorTexture":{"index":1},"metallicFactor":0,"roughnessFactor":0.5}},{"doubleSided":true,"name":"container1","pbrMetallicRoughness":{"baseColorTexture":{"index":2},"metallicFactor":0,"roughnessFactor":0.82}},{"doubleSided":true,"name":"container3","pbrMetallicRoughness":{"baseColorTexture":{"index":3},"metallicFactor":0,"roughnessFactor":0.82}},{"doubleSided":true,"name":"container2","pbrMetallicRoughness":{"baseColorTexture":{"index":4},"metallicFactor":0,"roughnessFactor":0.82}},{"doubleSided":true,"name":"container4","pbrMetallicRoughness":{"baseColorTexture":{"index":5},"metallicFactor":0,"roughnessFactor":0.82}},{"doubleSided":true,"name":"container5","pbrMetallicRoughness":{"baseColorTexture":{"index":6},"metallicFactor":0,"roughnessFactor":0.82}},{"doubleSided":true,"name":"Material.017","pbrMetallicRoughness":{"baseColorTexture":{"index":7},"metallicFactor":0,"roughnessFactor":0.82}},{"doubleSided":true,"name":"kutu_","pbrMetallicRoughness":{"baseColorFactor":[0.708375871181488,0.5457245707511902,0.3564002215862274,1],"metallicFactor":0,"roughnessFactor":0.5}},{"doubleSided":true,"name":"tahta","pbrMetallicRoughness":{"baseColorFactor":[0.7230553030967712,0.3915724754333496,0.10224173218011856,1],"metallicFactor":0,"roughnessFactor":0.5}},{"doubleSided":true,"name":"Material.028","pbrMetallicRoughness":{"baseColorFactor":[0.1506110429763794,0.19043610990047455,0.30672526359558105,1],"metallicFactor":0.5363636612892151,"roughnessFactor":0.4000000059604645}},{"doubleSided":true,"name":"Material.027","pbrMetallicRoughness":{"baseColorFactor":[0.7951549291610718,0.7838043570518494,0.8872435092926025,1],"metallicFactor":0.6000000238418579,"roughnessFactor":0.26818186044692993}},{"doubleSided":true,"name":"Material.033","pbrMetallicRoughness":{"baseColorFactor":[0.7681511044502258,0.40328967571258545,0,1],"metallicFactor":0,"roughnessFactor":0.4000000059604645}},{"doubleSided":true,"name":"Material.050","pbrMetallicRoughness":{"baseColorFactor":[0.011299815960228443,0.009067739360034466,0.007891185581684113,1],"metallicFactor":0,"roughnessFactor":0.4000000059604645}},{"doubleSided":true,"name":"Material.032","pbrMetallicRoughness":{"baseColorFactor":[0.6938718557357788,0.07227184623479843,0.0012141080806031823,1],"metallicFactor":0,"roughnessFactor":0.5}},{"doubleSided":true,"name":"Material.030","pbrMetallicRoughness":{"baseColorFactor":[0,0,0,1],"metallicFactor":0,"roughnessFactor":0.5}},{"doubleSided":true,"name":"Material.013","pbrMetallicRoughness":{"baseColorFactor":[0.06817631423473358,0.06817631423473358,0.06817631423473358,1],"metallicFactor":0,"roughnessFactor":0.5}},{"doubleSided":true,"name":"k1.003","pbrMetallicRoughness":{"baseColorFactor":[0.05796489492058754,0.18280553817749023,0.539479672908783,1],"metallicFactor":0.6545454263687134,"roughnessFactor":0.37272724509239197}},{"doubleSided":true,"name":"Material.037","pbrMetallicRoughness":{"baseColorFactor":[0.39973729848861694,0.4436267912387848,0.4298582375049591,1],"metallicFactor":0,"roughnessFactor":0.5}},{"doubleSided":true,"name":"Material","pbrMetallicRoughness":{"baseColorTexture":{"index":8},"metallicFactor":0,"roughnessFactor":0.82}},{"doubleSided":true,"name":"Material.009","pbrMetallicRoughness":{"baseColorTexture":{"index":9},"metallicFactor":0,"roughnessFactor":0.82}},{"doubleSided":true,"name":"k1.004","pbrMetallicRoughness":{"baseColorFactor":[0.6393012404441833,0.28231099247932434,0.028336351737380028,1],"metallicFactor":0.23636363446712494,"roughnessFactor":0.06363633275032043}},{"doubleSided":true,"name":"Material.001","pbrMetallicRoughness":{"baseColorFactor":[1,0.539479672908783,0.004776954650878906,1],"metallicFactor":0,"roughnessFactor":0.5}},{"doubleSided":true,"name":"Material.015","pbrMetallicRoughness":{"baseColorFactor":[0.03286760300397873,0.03286760300397873,0.03286760300397873,1],"metallicFactor":0,"roughnessFactor":0.5}},{"doubleSided":true,"name":"Material.016","pbrMetallicRoughness":{"baseColorFactor":[0.8148468732833862,0.5209956765174866,0.10461650043725967,1],"metallicFactor":0,"roughnessFactor":0.5}},{"doubleSided":true,"name":"Material.012","pbrMetallicRoughness":{"metallicFactor":0,"roughnessFactor":0.82}},{"doubleSided":true,"name":"Material.041","pbrMetallicRoughness":{"baseColorTexture":{"index":10},"metallicFactor":0.7454545497894287,"roughnessFactor":0.82}},{"doubleSided":true,"name":"Material.007","pbrMetallicRoughness":{"baseColorTexture":{"index":11},"metallicFactor":0,"roughnessFactor":0.82}}],"meshes":[{"name":"dockyard_static_scene_mesh","primitives":[{"attributes":{"POSITION":0,"NORMAL":1,"TEXCOORD_0":2,"COLOR_0":3},"indices":4,"material":0},{"attributes":{"POSITION":5,"NORMAL":6,"TEXCOORD_0":7,"COLOR_0":8},"indices":9,"material":1},{"attributes":{"POSITION":10,"NORMAL":11,"TEXCOORD_0":12,"COLOR_0":13},"indices":14,"material":2},{"attributes":{"POSITION":15,"NORMAL":16,"TEXCOORD_0":17,"COLOR_0":18},"indices":19,"material":3},{"attributes":{"POSITION":20,"NORMAL":21,"TEXCOORD_0":22,"COLOR_0":23},"indices":24,"material":4},{"attributes":{"POSITION":25,"NORMAL":26,"TEXCOORD_0":27,"COLOR_0":28},"indices":29,"material":5},{"attributes":{"POSITION":30,"NORMAL":31,"TEXCOORD_0":32,"COLOR_0":33},"indices":34,"material":6},{"attributes":{"POSITION":35,"NORMAL":36,"TEXCOORD_0":37,"COLOR_0":38},"indices":39,"material":7},{"attributes":{"POSITION":40,"NORMAL":41,"TEXCOORD_0":42,"COLOR_0":43},"indices":44,"material":8},{"attributes":{"POSITION":45,"NORMAL":46,"TEXCOORD_0":47,"COLOR_0":48},"indices":49,"material":9},{"attributes":{"POSITION":50,"NORMAL":51,"TEXCOORD_0":52,"COLOR_0":53},"indices":54,"material":10},{"attributes":{"POSITION":55,"NORMAL":56,"TEXCOORD_0":57,"COLOR_0":58},"indices":59,"material":11},{"attributes":{"POSITION":60,"NORMAL":61,"TEXCOORD_0":62,"COLOR_0":63},"indices":64},{"attributes":{"POSITION":65,"NORMAL":66,"TEXCOORD_0":67,"COLOR_0":68},"indices":69,"material":12},{"attributes":{"POSITION":70,"NORMAL":71,"TEXCOORD_0":72,"COLOR_0":73},"indices":74,"material":13},{"attributes":{"POSITION":75,"NORMAL":76,"TEXCOORD_0":77,"COLOR_0":78},"indices":79,"material":14},{"attributes":{"POSITION":80,"NORMAL":81,"TEXCOORD_0":82,"COLOR_0":83},"indices":84,"material":15},{"attributes":{"POSITION":85,"NORMAL":86,"TEXCOORD_0":87,"COLOR_0":88},"indices":89,"material":16},{"attributes":{"POSITION":90,"NORMAL":91,"TEXCOORD_0":92,"COLOR_0":93},"indices":94,"material":17},{"attributes":{"POSITION":95,"NORMAL":96,"TEXCOORD_0":97,"COLOR_0":98},"indices":99,"material":18},{"attributes":{"POSITION":100,"NORMAL":101,"TEXCOORD_0":102,"COLOR_0":103},"indices":104,"material":19},{"attributes":{"POSITION":105,"NORMAL":106,"TEXCOORD_0":107,"COLOR_0":108},"indices":109,"material":20},{"attributes":{"POSITION":110,"NORMAL":111,"TEXCOORD_0":112,"COLOR_0":113},"indices":114,"material":21},{"attributes":{"POSITION":115,"NORMAL":116,"TEXCOORD_0":117,"COLOR_0":118},"indices":119,"material":22},{"attributes":{"POSITION":120,"NORMAL":121,"TEXCOORD_0":122,"COLOR_0":123},"indices":124,"material":23},{"attributes":{"POSITION":125,"NORMAL":126,"TEXCOORD_0":127,"COLOR_0":128},"indices":129,"material":24},{"attributes":{"POSITION":130,"NORMAL":131,"TEXCOORD_0":132,"COLOR_0":133},"indices":134,"material":25},{"attributes":{"POSITION":135,"NORMAL":136,"TEXCOORD_0":137,"COLOR_0":138},"indices":139,"material":26},{"attributes":{"POSITION":140,"NORMAL":141,"TEXCOORD_0":142,"COLOR_0":143},"indices":144,"material":27}]}],"textures":[{"sampler":0,"source":0},{"sampler":0,"source":1},{"sampler":0,"source":2},{"sampler":0,"source":3},{"sampler":0,"source":4},{"sampler":0,"source":5},{"sampler":0,"source":6},{"sampler":0,"source":7},{"sampler":0,"source":8},{"sampler":0,"source":9},{"sampler":0,"source":10},{"sampler":0,"source":11}],"images":[{"mimeType":"image/jpeg","name":"zone","uri":"textures/zone.jpg"},{"mimeType":"image/jpeg","name":"hangar_Base_Color","uri":"textures/hangar_Base_Color.jpg"},{"mimeType":"image/jpeg","name":"container_Base_Color","uri":"textures/container_Base_Color.jpg"},{"mimeType":"image/jpeg","name":"container3_Base_Color","uri":"textures/container3_Base_Color.jpg"},{"mimeType":"image/jpeg","name":"container2_Base_Color","uri":"textures/container2_Base_Color.jpg"},{"mimeType":"image/jpeg","name":"container4_Base_Color","uri":"textures/container4_Base_Color.jpg"},{"mimeType":"image/jpeg","name":"container5_Base_Color","uri":"textures/container5_Base_Color.jpg"},{"mimeType":"image/jpeg","name":"truck_Base_Color","uri":"textures/truck_Base_Color.jpg"},{"mimeType":"image/jpeg","name":"ship-room_Base_Color","uri":"textures/ship-room_Base_Color.jpg"},{"mimeType":"image/jpeg","name":"shipbody_Base_Color","uri":"textures/shipbody_Base_Color.jpg"},{"mimeType":"image/jpeg","name":"block_Base_Color","uri":"textures/block_Base_Color.jpg"},{"mimeType":"image/jpeg","name":"factory_Base_Color","uri":"textures/factory_Base_Color.jpg"}],"accessors":[{"bufferView":0,"componentType":5126,"count":20,"max":[58.482177734375,-4.323373794555664,50.613304138183594],"min":[-42.928550720214844,-18.905967712402344,-50.79743194580078],"type":"VEC3"},{"bufferView":1,"componentType":5126,"count":20,"type":"VEC3"},{"bufferView":2,"componentType":5126,"count":20,"type":"VEC2"},{"bufferView":3,"componentType":5123,"count":20,"normalized":true,"type":"VEC4"},{"bufferView":4,"componentType":5123,"count":30,"type":"SCALAR"},{"bufferView":5,"componentType":5126,"count":1288,"max":[13.866029739379883,7.0020856857299805,-22.259523391723633],"min":[-19.523481369018555,-4.534188747406006,-47.59764099121094],"type":"VEC3"},{"bufferView":6,"componentType":5126,"count":1288,"type":"VEC3"},{"bufferView":7,"componentType":5126,"count":1288,"type":"VEC2"},{"bufferView":8,"componentType":5123,"count":1288,"normalized":true,"type":"VEC4"},{"bufferView":9,"componentType":5123,"count":3984,"type":"SCALAR"},{"bufferView":10,"componentType":5126,"count":744,"max":[30.96079444885254,3.02774715423584,32.23125457763672],"min":[-52.371910095214844,-6.653928279876709,-34.153133392333984],"type":"VEC3"},{"bufferView":11,"componentType":5126,"count":744,"type":"VEC3"},{"bufferView":12,"componentType":5126,"count":744,"type":"VEC2"},{"bufferView":13,"componentType":5123,"count":744,"normalized":true,"type":"VEC4"},{"bufferView":14,"componentType":5123,"count":1116,"type":"SCALAR"},{"bufferView":15,"componentType":5126,"count":168,"max":[27.993032455444336,-0.14955425262451172,32.181236267089844],"min":[-49.3079833984375,-4.339320182800293,-10.258970260620117],"type":"VEC3"},{"bufferView":16,"componentType":5126,"count":168,"type":"VEC3"},{"bufferView":17,"componentType":5126,"count":168,"type":"VEC2"},{"bufferView":18,"componentType":5123,"count":168,"normalized":true,"type":"VEC4"},{"bufferView":19,"componentType":5123,"count":252,"type":"SCALAR"},{"bufferView":20,"componentType":5126,"count":480,"max":[21.709314346313477,3.0998001098632812,32.26091766357422],"min":[-55.45384216308594,-6.5120015144348145,-27.758312225341797],"type":"VEC3"},{"bufferView":21,"componentType":5126,"count":480,"type":"VEC3"},{"bufferView":22,"componentType":5126,"count":480,"type":"VEC2"},{"bufferView":23,"componentType":5123,"count":480,"normalized":true,"type":"VEC4"},{"bufferView":24,"componentType":5123,"count":720,"type":"SCALAR"},{"bufferView":25,"componentType":5126,"count":336,"max":[19.2037296295166,3.0274085998535156,39.23326873779297],"min":[-55.37458801269531,-6.498216152191162,-27.73794174194336],"type":"VEC3"},{"bufferView":26,"componentType":5126,"count":336,"type":"VEC3"},{"bufferView":27,"componentType":5126,"count":336,"type":"VEC2"},{"bufferView":28,"componentType":5123,"count":336,"normalized":true,"type":"VEC4"},{"bufferView":29,"componentType":5123,"count":504,"type":"SCALAR"},{"bufferView":30,"componentType":5126,"count":336,"max":[43.844749450683594,8.599114418029785,32.17198944091797],"min":[-55.45477294921875,-6.513691425323486,-34.19136428833008],"type":"VEC3"},{"bufferView":31,"componentType":5126,"count":336,"type":"VEC3"},{"bufferView":32,"componentType":5126,"count":336,"type":"VEC2"},{"bufferView":33,"componentType":5123,"count":336,"normalized":true,"type":"VEC4"},{"bufferView":34,"componentType":5123,"count":504,"type":"SCALAR"},{"bufferView":35,"componentType":5126,"count":16041,"max":[44.05882263183594,-1.2010383605957031,39.474769592285156],"min":[-35.06418991088867,-4.339339733123779,-39.43376922607422],"type":"VEC3"},{"bufferView":36,"componentType":5126,"count":16041,"type":"VEC3"},{"bufferView":37,"componentType":5126,"count":16041,"type":"VEC2"},{"bufferView":38,"componentType":5123,"count":16041,"normalized":true,"type":"VEC4"},{"bufferView":39,"componentType":5123,"count":40488,"type":"SCALAR"},{"bufferView":40,"componentType":5126,"count":120,"max":[35.190834045410156,-1.4983644485473633,-17.389095306396484],"min":[33.498313903808594,-3.0096001625061035,-18.94812774658203],"type":"VEC3"},{"bufferView":41,"componentType":5126,"count":120,"type":"VEC3"},{"bufferView":42,"componentType":5126,"count":120,"type":"VEC2"},{"bufferView":43,"componentType":5123,"count":120,"normalized":true,"type":"VEC4"},{"bufferView":44,"componentType":5123,"count":180,"type":"SCALAR"},{"bufferView":45,"componentType":5126,"count":1356,"max":[35.363670349121094,-3.0096006393432617,-17.3363037109375],"min":[9.535545349121094,-4.655381679534912,-22.72498321533203],"type":"VEC3"},{"bufferView":46,"componentType":5126,"count":1356,"type":"VEC3"},{"bufferView":47,"componentType":5126,"count":1356,"type":"VEC2"},{"bufferView":48,"componentType":5123,"count":1356,"normalized":true,"type":"VEC4"},{"bufferView":49,"componentType":5123,"count":2034,"type":"SCALAR"},{"bufferView":50,"componentType":5126,"count":77400,"max":[53.900657653808594,-1.7856903076171875,46.76428985595703],"min":[-41.21434020996094,-4.348406791687012,-48.335243225097656],"type":"VEC3"},{"bufferView":51,"componentType":5126,"count":77400,"type":"VEC3"},{"bufferView":52,"componentType":5126,"count":77400,"type":"VEC2"},{"bufferView":53,"componentType":5123,"count":77400,"normalized":true,"type":"VEC4"},{"bufferView":54,"componentType":5125,"count":123840,"type":"SCALAR"},{"bufferView":55,"componentType":5126,"count":3900,"max":[53.98755645751953,-1.789236068725586,46.85694885253906],"min":[-41.24554443359375,-4.34503173828125,-48.376548767089844],"type":"VEC3"},{"bufferView":56,"componentType":5126,"count":3900,"type":"VEC3"},{"bufferView":57,"componentType":5126,"count":3900,"type":"VEC2"},{"bufferView":58,"componentType":5123,"count":3900,"normalized":true,"type":"VEC4"},{"bufferView":59,"componentType":5123,"count":6240,"type":"SCALAR"},{"bufferView":60,"componentType":5126,"count":8148,"max":[41.779319763183594,8.024750709533691,44.937843322753906],"min":[-53.491973876953125,-6.456740856170654,-10.951560974121094],"type":"VEC3"},{"bufferView":61,"componentType":5126,"count":8148,"type":"VEC3"},{"bufferView":62,"componentType":5126,"count":8148,"type":"VEC2"},{"bufferView":63,"componentType":5123,"count":8148,"normalized":true,"type":"VEC4"},{"bufferView":64,"componentType":5123,"count":13140,"type":"SCALAR"},{"bufferView":65,"componentType":5126,"count":2328,"max":[18.51725959777832,18.74029541015625,31.230560302734375],"min":[-53.39478302001953,-4.541025161743164,-18.071048736572266],"type":"VEC3"},{"bufferView":66,"componentType":5126,"count":2328,"type":"VEC3"},{"bufferView":67,"componentType":5126,"count":2328,"type":"VEC2"},{"bufferView":68,"componentType":5123,"count":2328,"normalized":true,"type":"VEC4"},{"bufferView":69,"componentType":5123,"count":3744,"type":"SCALAR"},{"bufferView":70,"componentType":5126,"count":808,"max":[13.87138557434082,10.095086097717285,26.37023162841797],"min":[-8.470945358276367,7.889008522033691,0.8194808959960938],"type":"VEC3"},{"bufferView":71,"componentType":5126,"count":808,"type":"VEC3"},{"bufferView":72,"componentType":5126,"count":808,"type":"VEC2"},{"bufferView":73,"componentType":5123,"count":808,"normalized":true,"type":"VEC4"},{"bufferView":74,"componentType":5123,"count":1464,"type":"SCALAR"},{"bufferView":75,"componentType":5126,"count":96,"max":[-23.21708869934082,17.725494384765625,24.44214630126953],"min":[-26.471261978149414,16.098407745361328,-16.869457244873047],"type":"VEC3"},{"bufferView":76,"componentType":5126,"count":96,"type":"VEC3"},{"bufferView":77,"componentType":5126,"count":96,"type":"VEC2"},{"bufferView":78,"componentType":5123,"count":96,"normalized":true,"type":"VEC4"},{"bufferView":79,"componentType":5123,"count":144,"type":"SCALAR"},{"bufferView":80,"componentType":5126,"count":5376,"max":[-21.68216323852539,18.905967712402344,23.113216400146484],"min":[-49.36671447753906,2.783975601196289,-15.469870567321777],"type":"VEC3"},{"bufferView":81,"componentType":5126,"count":5376,"type":"VEC3"},{"bufferView":82,"componentType":5126,"count":5376,"type":"VEC2"},{"bufferView":83,"componentType":5123,"count":5376,"normalized":true,"type":"VEC4"},{"bufferView":84,"componentType":5123,"count":8400,"type":"SCALAR"},{"bufferView":85,"componentType":5126,"count":13936,"max":[-21.84964370727539,16.661998748779297,23.289745330810547],"min":[-49.14524841308594,15.489056587219238,-15.669800758361816],"type":"VEC3"},{"bufferView":86,"componentType":5126,"count":13936,"type":"VEC3"},{"bufferView":87,"componentType":5126,"count":13936,"type":"VEC2"},{"bufferView":88,"componentType":5123,"count":13936,"normalized":true,"type":"VEC4"},{"bufferView":89,"componentType":5123,"count":27360,"type":"SCALAR"},{"bufferView":90,"componentType":5126,"count":616,"max":[-32.350425720214844,2.972013473510742,24.82837677001953],"min":[-34.88402557373047,-0.21317100524902344,18.24738311767578],"type":"VEC3"},{"bufferView":91,"componentType":5126,"count":616,"type":"VEC3"},{"bufferView":92,"componentType":5126,"count":616,"type":"VEC2"},{"bufferView":93,"componentType":5123,"count":616,"normalized":true,"type":"VEC4"},{"bufferView":94,"componentType":5123,"count":1380,"type":"SCALAR"},{"bufferView":95,"componentType":5126,"count":24,"max":[44.953819274902344,0.8695039749145508,-41.05778503417969],"min":[30.105154037475586,-4.448838233947754,-44.27463912963867],"type":"VEC3"},{"bufferView":96,"componentType":5126,"count":24,"type":"VEC3"},{"bufferView":97,"componentType":5126,"count":24,"type":"VEC2"},{"bufferView":98,"componentType":5123,"count":24,"normalized":true,"type":"VEC4"},{"bufferView":99,"componentType":5123,"count":36,"type":"SCALAR"},{"bufferView":100,"componentType":5126,"count":260,"max":[-44.03993606567383,13.506434440612793,-23.953832626342773],"min":[-56.60308074951172,-6.483772277832031,-36.98716735839844],"type":"VEC3"},{"bufferView":101,"componentType":5126,"count":260,"type":"VEC3"},{"bufferView":102,"componentType":5126,"count":260,"type":"VEC2"},{"bufferView":103,"componentType":5123,"count":260,"normalized":true,"type":"VEC4"},{"bufferView":104,"componentType":5123,"count":516,"type":"SCALAR"},{"bufferView":105,"componentType":5126,"count":2094,"max":[-42.65072250366211,-5.220292091369629,50.79743194580078],"min":[-58.482177734375,-12.00739860534668,-44.88727951049805],"type":"VEC3"},{"bufferView":106,"componentType":5126,"count":2094,"type":"VEC3"},{"bufferView":107,"componentType":5126,"count":2094,"type":"VEC2"},{"bufferView":108,"componentType":5123,"count":2094,"normalized":true,"type":"VEC4"},{"bufferView":109,"componentType":5123,"count":3732,"type":"SCALAR"},{"bufferView":110,"componentType":5126,"count":432,"max":[33.57861328125,-3.80660343170166,32.46885299682617],"min":[-11.120722770690918,-4.347203254699707,-7.285154342651367],"type":"VEC3"},{"bufferView":111,"componentType":5126,"count":432,"type":"VEC3"},{"bufferView":112,"componentType":5126,"count":432,"type":"VEC2"},{"bufferView":113,"componentType":5123,"count":432,"normalized":true,"type":"VEC4"},{"bufferView":114,"componentType":5123,"count":648,"type":"SCALAR"},{"bufferView":115,"componentType":5126,"count":908,"max":[33.62706756591797,-1.8992118835449219,-17.375282287597656],"min":[30.061891555786133,-4.325217247009277,-18.883852005004883],"type":"VEC3"},{"bufferView":116,"componentType":5126,"count":908,"type":"VEC3"},{"bufferView":117,"componentType":5126,"count":908,"type":"VEC2"},{"bufferView":118,"componentType":5123,"count":908,"normalized":true,"type":"VEC4"},{"bufferView":119,"componentType":5123,"count":1911,"type":"SCALAR"},{"bufferView":120,"componentType":5126,"count":1369,"max":[35.172584533691406,-2.7667245864868164,-17.375324249267578],"min":[30.062963485717773,-4.325217247009277,-18.883852005004883],"type":"VEC3"},{"bufferView":121,"componentType":5126,"count":1369,"type":"VEC3"},{"bufferView":122,"componentType":5126,"count":1369,"type":"VEC2"},{"bufferView":123,"componentType":5123,"count":1369,"normalized":true,"type":"VEC4"},{"bufferView":124,"componentType":5123,"count":2388,"type":"SCALAR"},{"bufferView":125,"componentType":5126,"count":64,"max":[32.973365783691406,-3.9391684532165527,-17.39305877685547],"min":[30.638818740844727,-4.257774829864502,-18.85593032836914],"type":"VEC3"},{"bufferView":126,"componentType":5126,"count":64,"type":"VEC3"},{"bufferView":127,"componentType":5126,"count":64,"type":"VEC2"},{"bufferView":128,"componentType":5123,"count":64,"normalized":true,"type":"VEC4"},{"bufferView":129,"componentType":5123,"count":168,"type":"SCALAR"},{"bufferView":130,"componentType":5126,"count":10,"max":[32.943504333496094,-2.123861312866211,-17.54940414428711],"min":[30.222963333129883,-3.172128200531006,-18.691085815429688],"type":"VEC3"},{"bufferView":131,"componentType":5126,"count":10,"type":"VEC3"},{"bufferView":132,"componentType":5126,"count":10,"type":"VEC2"},{"bufferView":133,"componentType":5123,"count":10,"normalized":true,"type":"VEC4"},{"bufferView":134,"componentType":5123,"count":18,"type":"SCALAR"},{"bufferView":135,"componentType":5126,"count":3080,"max":[45.56720733642578,-2.986203670501709,49.179443359375],"min":[-35.32350158691406,-4.348614692687988,47.98905944824219],"type":"VEC3"},{"bufferView":136,"componentType":5126,"count":3080,"type":"VEC3"},{"bufferView":137,"componentType":5126,"count":3080,"type":"VEC2"},{"bufferView":138,"componentType":5123,"count":3080,"normalized":true,"type":"VEC4"},{"bufferView":139,"componentType":5123,"count":4956,"type":"SCALAR"},{"bufferView":140,"componentType":5126,"count":1252,"max":[47.994590759277344,13.326216697692871,-25.732221603393555],"min":[24.743207931518555,-4.422795295715332,-41.090293884277344],"type":"VEC3"},{"bufferView":141,"componentType":5126,"count":1252,"type":"VEC3"},{"bufferView":142,"componentType":5126,"count":1252,"type":"VEC2"},{"bufferView":143,"componentType":5123,"count":1252,"normalized":true,"type":"VEC4"},{"bufferView":144,"componentType":5123,"count":3276,"type":"SCALAR"}],"bufferViews":[{"buffer":0,"byteLength":240,"byteOffset":0,"target":34962},{"buffer":0,"byteLength":240,"byteOffset":240,"target":34962},{"buffer":0,"byteLength":160,"byteOffset":480,"target":34962},{"buffer":0,"byteLength":160,"byteOffset":640,"target":34962},{"buffer":0,"byteLength":60,"byteOffset":800,"target":34963},{"buffer":0,"byteLength":15456,"byteOffset":860,"target":34962},{"buffer":0,"byteLength":15456,"byteOffset":16316,"target":34962},{"buffer":0,"byteLength":10304,"byteOffset":31772,"target":34962},{"buffer":0,"byteLength":10304,"byteOffset":42076,"target":34962},{"buffer":0,"byteLength":7968,"byteOffset":52380,"target":34963},{"buffer":0,"byteLength":8928,"byteOffset":60348,"target":34962},{"buffer":0,"byteLength":8928,"byteOffset":69276,"target":34962},{"buffer":0,"byteLength":5952,"byteOffset":78204,"target":34962},{"buffer":0,"byteLength":5952,"byteOffset":84156,"target":34962},{"buffer":0,"byteLength":2232,"byteOffset":90108,"target":34963},{"buffer":0,"byteLength":2016,"byteOffset":92340,"target":34962},{"buffer":0,"byteLength":2016,"byteOffset":94356,"target":34962},{"buffer":0,"byteLength":1344,"byteOffset":96372,"target":34962},{"buffer":0,"byteLength":1344,"byteOffset":97716,"target":34962},{"buffer":0,"byteLength":504,"byteOffset":99060,"target":34963},{"buffer":0,"byteLength":5760,"byteOffset":99564,"target":34962},{"buffer":0,"byteLength":5760,"byteOffset":105324,"target":34962},{"buffer":0,"byteLength":3840,"byteOffset":111084,"target":34962},{"buffer":0,"byteLength":3840,"byteOffset":114924,"target":34962},{"buffer":0,"byteLength":1440,"byteOffset":118764,"target":34963},{"buffer":0,"byteLength":4032,"byteOffset":120204,"target":34962},{"buffer":0,"byteLength":4032,"byteOffset":124236,"target":34962},{"buffer":0,"byteLength":2688,"byteOffset":128268,"target":34962},{"buffer":0,"byteLength":2688,"byteOffset":130956,"target":34962},{"buffer":0,"byteLength":1008,"byteOffset":133644,"target":34963},{"buffer":0,"byteLength":4032,"byteOffset":134652,"target":34962},{"buffer":0,"byteLength":4032,"byteOffset":138684,"target":34962},{"buffer":0,"byteLength":2688,"byteOffset":142716,"target":34962},{"buffer":0,"byteLength":2688,"byteOffset":145404,"target":34962},{"buffer":0,"byteLength":1008,"byteOffset":148092,"target":34963},{"buffer":0,"byteLength":192492,"byteOffset":149100,"target":34962},{"buffer":0,"byteLength":192492,"byteOffset":341592,"target":34962},{"buffer":0,"byteLength":128328,"byteOffset":534084,"target":34962},{"buffer":0,"byteLength":128328,"byteOffset":662412,"target":34962},{"buffer":0,"byteLength":80976,"byteOffset":790740,"target":34963},{"buffer":0,"byteLength":1440,"byteOffset":871716,"target":34962},{"buffer":0,"byteLength":1440,"byteOffset":873156,"target":34962},{"buffer":0,"byteLength":960,"byteOffset":874596,"target":34962},{"buffer":0,"byteLength":960,"byteOffset":875556,"target":34962},{"buffer":0,"byteLength":360,"byteOffset":876516,"target":34963},{"buffer":0,"byteLength":16272,"byteOffset":876876,"target":34962},{"buffer":0,"byteLength":16272,"byteOffset":893148,"target":34962},{"buffer":0,"byteLength":10848,"byteOffset":909420,"target":34962},{"buffer":0,"byteLength":10848,"byteOffset":920268,"target":34962},{"buffer":0,"byteLength":4068,"byteOffset":931116,"target":34963},{"buffer":0,"byteLength":928800,"byteOffset":935184,"target":34962},{"buffer":0,"byteLength":928800,"byteOffset":1863984,"target":34962},{"buffer":0,"byteLength":619200,"byteOffset":2792784,"target":34962},{"buffer":0,"byteLength":619200,"byteOffset":3411984,"target":34962},{"buffer":0,"byteLength":495360,"byteOffset":4031184,"target":34963},{"buffer":0,"byteLength":46800,"byteOffset":4526544,"target":34962},{"buffer":0,"byteLength":46800,"byteOffset":4573344,"target":34962},{"buffer":0,"byteLength":31200,"byteOffset":4620144,"target":34962},{"buffer":0,"byteLength":31200,"byteOffset":4651344,"target":34962},{"buffer":0,"byteLength":12480,"byteOffset":4682544,"target":34963},{"buffer":0,"byteLength":97776,"byteOffset":4695024,"target":34962},{"buffer":0,"byteLength":97776,"byteOffset":4792800,"target":34962},{"buffer":0,"byteLength":65184,"byteOffset":4890576,"target":34962},{"buffer":0,"byteLength":65184,"byteOffset":4955760,"target":34962},{"buffer":0,"byteLength":26280,"byteOffset":5020944,"target":34963},{"buffer":0,"byteLength":27936,"byteOffset":5047224,"target":34962},{"buffer":0,"byteLength":27936,"byteOffset":5075160,"target":34962},{"buffer":0,"byteLength":18624,"byteOffset":5103096,"target":34962},{"buffer":0,"byteLength":18624,"byteOffset":5121720,"target":34962},{"buffer":0,"byteLength":7488,"byteOffset":5140344,"target":34963},{"buffer":0,"byteLength":9696,"byteOffset":5147832,"target":34962},{"buffer":0,"byteLength":9696,"byteOffset":5157528,"target":34962},{"buffer":0,"byteLength":6464,"byteOffset":5167224,"target":34962},{"buffer":0,"byteLength":6464,"byteOffset":5173688,"target":34962},{"buffer":0,"byteLength":2928,"byteOffset":5180152,"target":34963},{"buffer":0,"byteLength":1152,"byteOffset":5183080,"target":34962},{"buffer":0,"byteLength":1152,"byteOffset":5184232,"target":34962},{"buffer":0,"byteLength":768,"byteOffset":5185384,"target":34962},{"buffer":0,"byteLength":768,"byteOffset":5186152,"target":34962},{"buffer":0,"byteLength":288,"byteOffset":5186920,"target":34963},{"buffer":0,"byteLength":64512,"byteOffset":5187208,"target":34962},{"buffer":0,"byteLength":64512,"byteOffset":5251720,"target":34962},{"buffer":0,"byteLength":43008,"byteOffset":5316232,"target":34962},{"buffer":0,"byteLength":43008,"byteOffset":5359240,"target":34962},{"buffer":0,"byteLength":16800,"byteOffset":5402248,"target":34963},{"buffer":0,"byteLength":167232,"byteOffset":5419048,"target":34962},{"buffer":0,"byteLength":167232,"byteOffset":5586280,"target":34962},{"buffer":0,"byteLength":111488,"byteOffset":5753512,"target":34962},{"buffer":0,"byteLength":111488,"byteOffset":5865000,"target":34962},{"buffer":0,"byteLength":54720,"byteOffset":5976488,"target":34963},{"buffer":0,"byteLength":7392,"byteOffset":6031208,"target":34962},{"buffer":0,"byteLength":7392,"byteOffset":6038600,"target":34962},{"buffer":0,"byteLength":4928,"byteOffset":6045992,"target":34962},{"buffer":0,"byteLength":4928,"byteOffset":6050920,"target":34962},{"buffer":0,"byteLength":2760,"byteOffset":6055848,"target":34963},{"buffer":0,"byteLength":288,"byteOffset":6058608,"target":34962},{"buffer":0,"byteLength":288,"byteOffset":6058896,"target":34962},{"buffer":0,"byteLength":192,"byteOffset":6059184,"target":34962},{"buffer":0,"byteLength":192,"byteOffset":6059376,"target":34962},{"buffer":0,"byteLength":72,"byteOffset":6059568,"target":34963},{"buffer":0,"byteLength":3120,"byteOffset":6059640,"target":34962},{"buffer":0,"byteLength":3120,"byteOffset":6062760,"target":34962},{"buffer":0,"byteLength":2080,"byteOffset":6065880,"target":34962},{"buffer":0,"byteLength":2080,"byteOffset":6067960,"target":34962},{"buffer":0,"byteLength":1032,"byteOffset":6070040,"target":34963},{"buffer":0,"byteLength":25128,"byteOffset":6071072,"target":34962},{"buffer":0,"byteLength":25128,"byteOffset":6096200,"target":34962},{"buffer":0,"byteLength":16752,"byteOffset":6121328,"target":34962},{"buffer":0,"byteLength":16752,"byteOffset":6138080,"target":34962},{"buffer":0,"byteLength":7464,"byteOffset":6154832,"target":34963},{"buffer":0,"byteLength":5184,"byteOffset":6162296,"target":34962},{"buffer":0,"byteLength":5184,"byteOffset":6167480,"target":34962},{"buffer":0,"byteLength":3456,"byteOffset":6172664,"target":34962},{"buffer":0,"byteLength":3456,"byteOffset":6176120,"target":34962},{"buffer":0,"byteLength":1296,"byteOffset":6179576,"target":34963},{"buffer":0,"byteLength":10896,"byteOffset":6180872,"target":34962},{"buffer":0,"byteLength":10896,"byteOffset":6191768,"target":34962},{"buffer":0,"byteLength":7264,"byteOffset":6202664,"target":34962},{"buffer":0,"byteLength":7264,"byteOffset":6209928,"target":34962},{"buffer":0,"byteLength":3822,"byteOffset":6217192,"target":34963},{"buffer":0,"byteLength":16428,"byteOffset":6221016,"target":34962},{"buffer":0,"byteLength":16428,"byteOffset":6237444,"target":34962},{"buffer":0,"byteLength":10952,"byteOffset":6253872,"target":34962},{"buffer":0,"byteLength":10952,"byteOffset":6264824,"target":34962},{"buffer":0,"byteLength":4776,"byteOffset":6275776,"target":34963},{"buffer":0,"byteLength":768,"byteOffset":6280552,"target":34962},{"buffer":0,"byteLength":768,"byteOffset":6281320,"target":34962},{"buffer":0,"byteLength":512,"byteOffset":6282088,"target":34962},{"buffer":0,"byteLength":512,"byteOffset":6282600,"target":34962},{"buffer":0,"byteLength":336,"byteOffset":6283112,"target":34963},{"buffer":0,"byteLength":120,"byteOffset":6283448,"target":34962},{"buffer":0,"byteLength":120,"byteOffset":6283568,"target":34962},{"buffer":0,"byteLength":80,"byteOffset":6283688,"target":34962},{"buffer":0,"byteLength":80,"byteOffset":6283768,"target":34962},{"buffer":0,"byteLength":36,"byteOffset":6283848,"target":34963},{"buffer":0,"byteLength":36960,"byteOffset":6283884,"target":34962},{"buffer":0,"byteLength":36960,"byteOffset":6320844,"target":34962},{"buffer":0,"byteLength":24640,"byteOffset":6357804,"target":34962},{"buffer":0,"byteLength":24640,"byteOffset":6382444,"target":34962},{"buffer":0,"byteLength":9912,"byteOffset":6407084,"target":34963},{"buffer":0,"byteLength":15024,"byteOffset":6416996,"target":34962},{"buffer":0,"byteLength":15024,"byteOffset":6432020,"target":34962},{"buffer":0,"byteLength":10016,"byteOffset":6447044,"target":34962},{"buffer":0,"byteLength":10016,"byteOffset":6457060,"target":34962},{"buffer":0,"byteLength":6552,"byteOffset":6467076,"target":34963}],"samplers":[{"magFilter":9729,"minFilter":9987}],"buffers":[{"byteLength":6473628,"uri":"dockyard.bin"}]}